<svg width="32" height="32" viewBox="0 0 32 32" fill="none" xmlns="http://www.w3.org/2000/svg">
  <!-- Enhanced Gradient Definition -->
  <defs>
    <linearGradient id="faviconGradient" x1="0%" y1="0%" x2="100%" y2="100%">
      <stop offset="0%" style="stop-color:#9333EA;stop-opacity:1" />
      <stop offset="50%" style="stop-color:#EC4899;stop-opacity:1" />
      <stop offset="100%" style="stop-color:#3B82F6;stop-opacity:1" />
    </linearGradient>
    <linearGradient id="faviconGlow" x1="0%" y1="0%" x2="100%" y2="100%">
      <stop offset="0%" style="stop-color:#9333EA;stop-opacity:0.6" />
      <stop offset="50%" style="stop-color:#EC4899;stop-opacity:0.6" />
      <stop offset="100%" style="stop-color:#3B82F6;stop-opacity:0.6" />
    </linearGradient>
  </defs>
  
  <!-- Background Circle with Glow -->
  <circle cx="16" cy="16" r="15" fill="url(#faviconGlow)" opacity="0.3"/>
  <circle cx="16" cy="16" r="12" fill="url(#faviconGlow)" opacity="0.2"/>
  
  <!-- Modern Headphone Icon -->
  <g transform="translate(16, 16)">
    <!-- Headphone Band -->
    <path d="M -6 0 Q -6 -8, 0 -8 Q 6 -8, 6 0" 
          stroke="url(#faviconGradient)" 
          stroke-width="2" 
          stroke-linecap="round"
          fill="none"/>
    
    <!-- Left Speaker -->
    <rect x="-8" y="-2" width="3" height="6" rx="1.5" fill="url(#faviconGradient)"/>
    <rect x="-7.5" y="0" width="2" height="3" rx="1" fill="#1a1a2e" opacity="0.4"/>
    
    <!-- Right Speaker -->
    <rect x="5" y="-2" width="3" height="6" rx="1.5" fill="url(#faviconGradient)"/>
    <rect x="5.5" y="0" width="2" height="3" rx="1" fill="#1a1a2e" opacity="0.4"/>
    
    <!-- Center Waveform -->
    <path d="M -3 0 L -3 -2 L -1.5 2.5 L 0 -3 L 1.5 3 L 3 -1.5 L 3 0" 
          stroke="url(#faviconGradient)" 
          stroke-width="1.2" 
          stroke-linecap="round"
          stroke-linejoin="round"
          fill="none"
          opacity="0.9"/>
  </g>
</svg>
