<svg width="32" height="32" viewBox="0 0 32 32" fill="none" xmlns="http://www.w3.org/2000/svg">
  <!-- Background -->
  <rect width="32" height="32" rx="6" fill="url(#faviconGradient)"/>
  
  <!-- Gradient Definition -->
  <defs>
    <linearGradient id="faviconGradient" x1="0%" y1="0%" x2="100%" y2="100%">
      <stop offset="0%" style="stop-color:#9333EA;stop-opacity:1" />
      <stop offset="50%" style="stop-color:#EC4899;stop-opacity:1" />
      <stop offset="100%" style="stop-color:#3B82F6;stop-opacity:1" />
    </linearGradient>
  </defs>
  
  <!-- Music Note Icon -->
  <path d="M16 6 L16 22 M16 6 L23 4.5 L23 20.5 M16 22 C16 23.3807 14.8807 24.5 13.5 24.5 C12.1193 24.5 11 23.3807 11 22 C11 20.6193 12.1193 19.5 13.5 19.5 C14.8807 19.5 16 20.6193 16 22 Z M23 20.5 C23 21.8807 21.8807 23 20.5 23 C19.1193 23 18 21.8807 18 20.5 C18 19.1193 19.1193 18 20.5 18 C21.8807 18 23 19.1193 23 20.5 Z" 
        stroke="white" 
        stroke-width="2" 
        stroke-linecap="round" 
        stroke-linejoin="round"
        fill="none"/>
</svg>
